<?xml version="1.0" standalone="no"?>
<!DOCTYPE svg PUBLIC "-//W3C//DTD SVG 20010904//EN"
 "http://www.w3.org/TR/2001/REC-SVG-20010904/DTD/svg10.dtd">
<svg version="1.0" xmlns="http://www.w3.org/2000/svg"
 width="142.000000pt" height="142.000000pt" viewBox="0 0 142.000000 142.000000"
 preserveAspectRatio="xMidYMid meet">
<metadata>
Created by potrace 1.11, written by Peter Selinger 2001-2013
</metadata>
<g transform="translate(0.000000,142.000000) scale(0.100000,-0.100000)"
fill="#000000" stroke="none">
<path d="M2 718 c3 -241 3 -243 25 -246 21 -3 22 0 21 70 0 179 1 198 17 198
23 0 27 -20 29 -148 1 -113 2 -117 24 -120 22 -3 22 -3 22 130 0 121 -2 136
-20 156 -11 12 -32 25 -45 28 -23 6 -25 11 -26 73 -1 36 -1 74 0 84 2 12 -5
17 -24 17 l-25 0 2 -242z"/>
<path d="M209 941 c-23 -18 -23 -21 -23 -242 l-1 -224 24 0 23 0 2 215 c1 208
2 215 21 215 19 0 20 -7 22 -165 3 -292 1 -270 22 -270 10 0 21 6 23 13 2 6 4
108 3 226 0 211 -1 213 -24 232 -29 24 -62 24 -92 0z"/>
<path d="M395 935 c-16 -15 -25 -36 -25 -55 0 -27 3 -31 23 -28 16 2 23 11 25
31 2 18 9 27 22 27 23 0 28 -15 25 -64 -4 -40 -17 -56 -46 -56 -36 0 -49 -44
-49 -160 0 -104 1 -112 25 -135 30 -30 54 -31 89 -4 l26 20 -1 202 c-1 190 -2
203 -22 225 -27 29 -62 28 -92 -3z m64 -207 c9 -26 8 -195 -2 -204 -3 -4 -13
-4 -22 -1 -11 5 -15 21 -16 59 -1 79 2 152 7 160 9 15 25 8 33 -14z"/>
<path d="M580 942 c-22 -18 -23 -23 -22 -218 0 -272 -1 -254 22 -254 15 0 20
7 21 28 0 15 1 113 2 217 2 183 3 190 22 190 19 0 20 -8 23 -217 2 -205 3
-218 21 -218 10 0 21 6 23 13 3 6 4 108 3 226 -1 210 -2 214 -24 232 -29 24
-62 24 -91 1z"/>
<path d="M913 721 c0 -222 1 -240 18 -244 26 -7 29 0 29 74 0 72 9 89 33 64
11 -11 15 -31 13 -69 -4 -59 0 -70 26 -72 15 -1 17 18 17 219 1 213 0 222 -21
244 -16 18 -32 23 -68 23 l-46 0 -1 -239z m92 75 c-1 -103 -10 -136 -34 -122
-12 8 -16 228 -5 239 4 3 14 2 23 -3 14 -7 16 -26 16 -114z"/>
<path d="M1099 933 c-4 -121 -1 -445 5 -450 4 -4 13 -8 21 -9 11 -2 15 9 16
44 1 54 1 399 0 425 -1 10 -9 17 -21 17 -15 0 -20 -7 -21 -27z"/>
<path d="M1215 944 c-19 -14 -20 -29 -23 -211 -2 -108 -1 -207 2 -219 3 -12
20 -27 36 -34 58 -24 100 16 99 92 0 18 2 48 5 66 4 28 2 32 -20 34 -13 0 -29
1 -35 2 -19 2 -30 -41 -13 -48 20 -8 19 -95 -1 -103 -9 -3 -19 -3 -22 1 -9 8
-10 364 -2 378 12 18 39 0 39 -25 0 -19 5 -24 25 -24 23 0 25 3 21 35 -6 61
-65 91 -111 56z"/>
<path d="M1372 720 l-1 -240 24 0 25 0 -1 240 -1 240 -23 0 -23 0 0 -240z"/>
<path d="M783 720 c-1 -11 3 -22 8 -26 14 -9 39 15 32 32 -8 21 -39 17 -40 -6z"/>
</g>
</svg>
